<svg xmlns="http://www.w3.org/2000/svg" viewBox="0 0 130.4 79.8" enable-background="new 0 0 130.4 79.8"><path fill="#383933" d="M4 51.1l60.3 26c.6.3 1.3.3 1.9 0l60.3-26c.9-.4 1.4-1.2 1.4-2.2v-25.4c0-1.1-.8-2-1.9-2.3l-60.4-18.3c-.3-.1-.6-.1-.8 0l-60.3 18.3c-1.1.4-1.9 1.2-1.9 2.3v25.5c0 .9.5 1.7 1.4 2.1"/><path fill="#8B7955" d="M65.2 79.8c-.7 0-1.3-.1-2-.4l-60.2-26.1c-1.8-.8-3-2.6-3-4.6v-25.4c0-2.4 1.7-4.2 4.1-4.9l60.2-18.3c.6-.2 1.2-.2 1.8 0l60.3 18.3c2.4.7 4.1 2.5 4.1 4.9v25.4c0 2-1.2 3.8-3 4.6l-60.3 26c-.6.3-1.3.5-2 .5m0-78.7c-.2 0-.5 0-.7.1l-60.2 18.4c-1.8.6-3.2 1.9-3.2 3.8v25.4c0 1.5.9 2.9 2.3 3.5l60.3 26c1 .4 2.1.4 3.1 0l60.3-26c1.4-.6 2.3-2 2.3-3.5v-25.5c0-1.9-1.4-3.2-3.2-3.8l-60.3-18.3c-.2-.1-.4-.1-.7-.1"/><path fill="#FAF4DB" d="M7.9 42.1v-11.7c0-1.5.4-2.9 1.3-4 1-1.3 2.3-1.9 3.8-1.9 1.7 0 3.1.8 4.1 2.3.7 1 1 2 1 3.1 0 3.6 0 7.1-.1 10.7 0 1.1-.3 2.1-.9 3.1-1 1.8-2.4 2.9-4.3 3.3-1.6.3-2.9 0-3.9-1.2-.7-1-1-2.2-1-3.7m7.3-.8c0-3.9 0-7.8.1-11.6 0-.7-.2-1.2-.7-1.7-.4-.5-1-.7-1.6-.7-.8 0-1.5.4-2 1.3-.2.4-.3.8-.3 1.3v12.1c0 .6.2 1.1.5 1.5.4.5 1 .7 1.7.6.8-.2 1.5-.6 1.9-1.4.2-.5.3-.9.4-1.4m6.9 3.5l.1-20.1h5.8c1.4 0 2.5.4 3.3 1.3.7.8 1.1 1.8 1.1 3v1.9c0 .5-.1 1-.4 1.6-.2.5-.6 1-.9 1.4-.6.6-1.3 1-2.3 1.3-.4.1-.7.2-1 .2-.9.1-1.9.2-2.8.2 0 2.9 0 5.8-.1 8.6-.9.3-1.9.5-2.8.6m2.9-11.6l2.5-.2c.6 0 1.1-.3 1.5-.7.3-.4.5-.8.5-1.3v-2c0-.5-.1-.9-.4-1.2-.3-.4-.9-.7-1.5-.7-.9 0-1.7 0-2.6.1v6m10.6 9.7l.2-18.2h9.4v2.2c-2.2 0-4.4.1-6.5.1v5.3l4.3-.2v2.2c-1.4.1-2.9.2-4.3.2 0 1.9 0 3.7-.1 5.6 2.2-.2 4.4-.4 6.5-.5v2.2c-3.3.4-6.4.7-9.5 1.1m13-1.2l.1-17h3.1c1.5 3.7 3 7.3 4.5 10.9v-10.9h2.6c0 5.5 0 11-.1 16.5-1 0-2 .1-3.1.1-1.5-3.5-3-7-4.6-10.5 0 3.6 0 7.2-.1 10.7-.7.1-1.6.2-2.4.2m19.9-.5v-16.5h6c.5 0 1.1.1 1.6.3.6.2 1.1.5 1.4.8.8.7 1.3 1.6 1.3 2.8v1.7c0 .4-.1.8-.3 1.3-.2.5-.5.9-.8 1.2-.5.6-1.2 1-2.2 1.2 1.2 2.5 2.4 5 3.6 7.6l-3.1-.2-3.5-7.5h-1.2v7.3c-.9.1-1.8 0-2.8 0m2.9-9.4h2.6c.5 0 .9 0 1.1-.1.6-.3.9-.8.9-1.4v-1.7c0-.4-.1-.8-.4-1.1-.4-.4-.9-.6-1.4-.6h-2.8c-.1 1.6 0 3.3 0 4.9m11.1 5.9c0-2.9 0-5.9-.1-8.8 0-1.2.4-2.1 1.2-2.9 1-1 2.3-1.5 3.8-1.5 1.7 0 3.1.6 4.1 2 .7.9 1 1.8 1 2.7l.1 9.3c0 .9-.3 1.8-.8 2.5-1 1.3-2.4 1.8-4.3 1.6-1.7-.2-3-.8-4-1.9-.6-.9-1-1.9-1-3m7.4.8l-.1-9.7c0-.6-.2-1-.7-1.4-.5-.4-1-.6-1.6-.6-.8 0-1.5.3-2 .9-.2.3-.3.6-.3 1l.1 9.5c0 .5.2.9.5 1.3.5.5 1 .8 1.8.8.8.1 1.5-.2 1.9-.7.3-.3.4-.7.4-1.1m9.2 3l-.5 2.1-2.9-.4c1.4-6 2.8-12.1 4.2-18.5h3.2c1.5 6.5 3 13.2 4.5 20.2-1-.2-2-.3-2.9-.5l-.6-2.3c-1.6-.2-3.3-.4-5-.6m4.4-1.9c-.7-3.1-1.3-6.1-2-9-.6 2.9-1.2 5.8-1.8 8.6 1.3.1 2.6.2 3.8.4m7.3 6l-.1-20.8h5.7c1.4 0 2.5.6 3.4 1.7.8 1 1.1 2.2 1.1 3.6v12.5c0 1.4-.4 2.5-1.2 3.3-.9.9-2 1.1-3.2.9-1.9-.5-3.8-.9-5.7-1.2m2.8-2.3c.8.1 1.7.3 2.5.5.6.1 1.1 0 1.5-.4.3-.4.5-.8.5-1.3v-12.1c0-.7-.2-1.2-.5-1.7-.3-.4-.8-.6-1.4-.6l-2.6-.1v15.7"/><path fill="#8B7955" d="M72.7 29.6v-1.6h1.9c.2 0 .5 0 .7.3v.1c-.1-.1-.3-.1-.4-.1h-1.9v3h-.3v-1.7zm-19.7-4.9c.9 2.1 1.8 4.3 2.7 6.6v-.5c-.8-2-1.6-4-2.4-5.8l-.2-.6h-.2l.1.3zm63.5 4h-1.6v14.3c.1 0 .2 0 .3.1v-14.1h1.6c.2 0 .3 0 .4.1v-.1c-.1-.2-.4-.3-.7-.3m-29.5 10.5l.3.3c-.2-.2-.3-.5-.3-.8v-9.5c0-.2 0-.4.2-.6.3-.4.6-.5 1.1-.5.3 0 .5.1.8.2l-.1-.1c-.3-.3-.6-.4-1-.4-.5 0-.9.2-1.1.5-.1.2-.2.3-.2.6v9.5c0 .3.1.6.3.8m14.2-.5h.4c.2-.9.4-1.8.6-2.6l-.2-.9c-.3 1.1-.6 2.3-.8 3.5m-23.6-3.6c.6-.3 1.2-.6 1.6-1.1.4-.5.7-1 .9-1.5.2-.6.4-1.1.4-1.6v-1.8c0-1.4-.5-2.5-1.6-3.4l-.2-.1c.9.9 1.4 1.9 1.4 3.2v1.8c0 .5-.1 1-.4 1.6-.2.5-.5 1-.9 1.5s-1 .9-1.6 1.1c1.2 2.4 2.2 4.7 3.2 6.8l.6 1.3-1.5-.1-3.1-.2h-.4l.1.3h.6l3.1.2 1.5.1-.6-1.3c-.9-2.1-1.9-4.4-3.1-6.8m-17.4-10.1v17.4h-.9c-1 0-2 .1-3.1.1h-.4l.1.3h.7c1 0 2-.1 3.1-.1h.9v-18.2h-.3l-.1.5zm12.9 13.4v-1.8l-.3-.7v6.7h-1l-2.8-.1h-.6v.3h.9c.9 0 1.9 0 2.8.1h1v-4.5zm-20.6-2.9v7.1h-.9c-.9 0-1.7.1-2.6.2h-.7v.3l1-.1 2.6-.2h.9v-6.6c-.1-.2-.2-.4-.3-.7m-6.1-10.5v3h-.9c-1.9 0-3.7 0-5.6.1v3.6h.3v-3.3l5.6-.1h.9v-3.8h-.3v.5zm58.4.1l-.2-.7h-.3l.1.4c1.6 6.7 3.1 13.5 4.5 20.2l.3 1.2-1.3-.2-2.9-.5-.3-.1.1.2.6.1 2.9.5 1.3.2-.3-1.2c-1.5-6.5-3-13.3-4.5-20.1m-10.5 4.6c0-1.1-.4-2.2-1.2-3.2-.3-.4-.7-.8-1.1-1.1.3.2.5.5.7.8.8 1 1.2 2.1 1.2 3.2v2.4l.1 6.9c0 1.1-.3 2.1-1 3-1.1 1.4-2.5 2-4.4 2h-.8c-1.5-.1-2.8-.7-3.8-1.5 1.1 1 2.5 1.7 4.2 1.8h.8c1.9 0 3.3-.7 4.4-2 .7-.9 1-1.9 1-3l-.1-7v-2.3zm27-3.2c-.3-.4-.6-.7-1-1 .2.2.4.4.6.7.9 1.1 1.3 2.5 1.3 4.1v12.5c0 1.6-.5 2.9-1.5 3.9-.8.8-1.8 1.2-3 1.2-.4 0-.7 0-1.1-.1-1.9-.4-3.7-.8-5.6-1.1l-.4-.1v.2l.7.1c1.9.3 3.7.7 5.6 1.1.4.1.8.1 1.1.1 1.2 0 2.2-.4 3-1.2 1-1 1.5-2.3 1.5-3.9v-12.4c.1-1.6-.3-2.9-1.2-4.1m-75 13.5v3l-.8.1c-3.1.2-6.3.6-9.4.9l-.7.1v.3l1.1-.1c3.1-.4 6.2-.7 9.4-.9l.8-.1v-3.9h-.3l-.1.6zm57.4 3.2c-1.1-.2-2.3-.3-3.5-.5l-.2 1.3-.2.8-.9-.1-2.9-.4-.6-.1-.1.2 1 .1 2.9.4.9.1.2-.8.3-1.3c1.1.1 2.2.3 3.2.4l-.1-.1m-59.5-10.7v3h-.9l-3.5.2v3.9h.3v-3.6l3.5-.2h.9v-3.9h-.3v.6zm-16.2-4.2h-1.7v4.1h.3v-3.8h1.7c.2 0 .3 0 .4.1v-.1c0-.1-.2-.3-.7-.3m4.2-2.7l.2.2c.9.9 1.3 2.1 1.3 3.5v1.9c0 .6-.2 1.2-.4 1.9-.3.6-.7 1.2-1.1 1.7-.7.7-1.6 1.2-2.7 1.6-.4.1-.9.2-1.2.3l-2 .2v8.6l-.8.1c-.9.1-1.9.3-2.8.5l-.8-.1v.4l1.1-.2 2.8-.5.8-.1v-8.6l2-.2c.4 0 .8-.1 1.2-.3 1.1-.4 2-.9 2.7-1.6.5-.5.8-1 1.1-1.7.3-.6.4-1.3.4-1.9v-1.9c0-1.4-.4-2.6-1.3-3.5-.1 0-.3-.2-.5-.3m-14.9-.1c.3.3.6.7.9 1.1.7 1.1 1.1 2.3 1.1 3.5v10.6c0 1.2-.3 2.3-1 3.5-1.2 2-2.8 3.3-4.9 3.7-.4.1-.9.1-1.3.1-1.1 0-2-.3-2.8-.9.8.8 1.9 1.2 3.1 1.2.4 0 .8 0 1.3-.1 2.1-.4 3.7-1.7 4.9-3.7.6-1.1 1-2.3 1-3.5v-10.6c0-1.2-.4-2.4-1.1-3.5-.3-.6-.7-1.1-1.2-1.4m-3.9 2.9c-.3 0-.8.1-1.2.8-.1.3-.2.6-.2 1v12.2c0 .4.1.8.3 1 .1.1.2.2.3.2-.2-.2-.2-.5-.2-.9v-12.2c0-.4.1-.7.2-1 .4-.7.8-.8 1.2-.8.2 0 .3 0 .6.2v-.1c-.5-.4-.8-.4-1-.4"/><path fill="#FAF4DB" d="M71.3 19.8h-1.3l-3-5.2v-.1h.1c1.3-.2 2.2-1 2.6-2.1v-.2c0-.1-.1-.1-.2-.1h-.7c-.1 0-.2.1-.2.2-.4 1-1.3 1.5-2.6 1.5h-3s-.1 0-.1-.1v-5.1s0-.1.1-.1h3.1c.8 0 1.6.3 2 .8 0 .1.1.1.2.1h.8c.1 0 .2-.1.2-.1v-.3c-.7-1-1.8-1.5-3.2-1.5h-5.4c-.1 0-.3.1-.3.3v.5c0 .1.1.3.3.3h1s.1 0 .1.1v7.5c0 .1.1.3.3.3h.6c.1 0 .3-.1.3-.3v-1.5s0-.1.1-.1h2.8l3.4 6c0 .1.1.1.2.1h1.8c.1 0 .3-.1.3-.3v-.4c0-.1-.2-.2-.3-.2M66.5 17.2c0-.1-.1-.1-.2-.1h-5c-1.6 0-2.9-1.3-2.9-2.9 0-1.5 1.1-2.7 2.6-2.9.1 0 .2-.1.2-.3v-.6c0-.1 0-.1-.1-.2l-.2-.1c-2.1.2-3.6 1.9-3.6 4 0 2.2 1.8 4 4 4h5.3c.1 0 .2 0 .2-.1v-.3l-.3-.5zm-2.5 2.6h-1s-.1 0-.1-.1v-.5c0-.1-.1-.3-.3-.3h-.6c-.1 0-.3.1-.3.3v.5s0 .1-.1.1h-1c-.1 0-.3.1-.3.3v.5c0 .1.1.3.3.3h3.4c.1 0 .3-.1.3-.3v-.6c0-.1-.1-.2-.3-.2m5.2-9.7h-5.2c-.1 0-.3.1-.3.3v.6c0 .1.1.3.3.3h5.2c1.6 0 2.9 1.3 2.9 2.9 0 1.4-1 2.6-2.4 2.9-.1 0-.2.1-.2.1v.2l.3.6c0 .1.1.1.2.1h.1c1.8-.4 3.1-2 3.1-3.9 0-2.2-1.8-4.1-4-4.1m-14.8 41c0-.5-.5-1-1-1s-.9.3-1 .7c-.3.7-.1 1.3.4 1.7l.1.1-.1.1-.2.3-1.3 3.6h.4c.5 0 .9-.3 1.1-.7l1.1-2.9 1.5.4c.2.1.4.2.5.3.1.2.1.4 0 .7l-1 2.8c-.3.8-.2 1.5.2 2s1 .8 1.8.8c.9 0 1.6-.3 2.2-1l.1-.1-.2.1c.4.6 1 .9 1.8.9s1.6-.4 2.1-1l.1-.1.1.2c.3.7 1.1 1.2 2.2 1.2 2.1 0 3.2-1.1 4.3-4.1l.8-2c.5-.9 1.2-1.5 2-1.5.4 0 .6.1.8.4.2.3.2.7.1 1.2l-1.3 3c-.3.7-.2 1.4.2 2 .4.6 1.1.9 1.9.9 1 0 1.8-.3 2.4-1l.1-.1.1.1c.4.5 1.1.8 1.8.8.8 0 1.7-.4 2.3-1l.1-.1.1.1c.2.7 1 1.1 2 1.1.7 0 1.6-.2 2.6-1.2l-.7-.8c-.5.7-1.1 1-1.7 1-.4 0-.6-.1-.8-.4-.2-.3-.2-.6-.1-1l4-11.4h-1.6l-2.2 6.4-.1-.2c-.4-.8-1.2-1.3-2.1-1.3-.8 0-1.9.4-2.3 1.6l-1.4 3.9c-.6 1.6-1.4 2.4-2.2 2.4-.3 0-.6-.1-.8-.4-.2-.3-.2-.7-.1-1.2l1.3-3.7c.2-.6.2-1.3-.2-1.8s-.9-.8-1.6-.8c-.7 0-1.4.3-2 .8l-.2.2v-.9h-1.1l-1.6 4.5c-.7 2.2-1.5 3.1-2.6 3.1-.4 0-.6-.1-.8-.3-.2-.3-.2-.7 0-1.2l2.2-6.1h-1.4l-.6 1.2-.1-.2c-.4-.9-1.3-1.2-2-1.2-.8 0-1.9.4-2.3 1.6l-1.4 4c-.6 1.5-1.3 2.3-2.1 2.3-.3 0-.5-.1-.7-.3-.2-.3-.2-.7-.1-1.1l1.1-2.9c.2-.5.2-1 0-1.3-.1-.3-.4-.5-.8-.6l-.7-.2c-.4-.1-.9-.2-1.7-.4l-.2-.1.1-.1c.3-.2.4-.5.4-.8m23.5 6.1l1.4-4.2c.2-.5.6-.8 1.1-.8.3 0 .7.2.9.4.3.4.5.9.4 1.5l-1.1 3.1c-.6 1.2-1.4 1.6-2 1.6-.4 0-.6-.1-.8-.4 0-.3 0-.7.1-1.2m-17.5 0l1.4-4.2c.2-.5.6-.9 1.2-.9.4 0 .7.2.9.5.3.4.4 1 .3 1.7l-1 2.9c-.7 1.5-1.6 1.6-1.9 1.6-.3 0-.6-.1-.8-.4-.3-.3-.3-.7-.1-1.2m29.9-4.9c-.5-.6-1.1-.9-2-.9-1.4 0-2.9.8-3 2.4-.1 1.2.6 2 1.4 2.9.1.1.2.3.4.4.6.7 1.3 1.5 1.3 2.4 0 1.5-.8 1.9-2.9 1.9h-35.5l-.7 1.3h36.8c1.5 0 2.7-.4 3.3-1.1.5-.6.8-1.5.7-2.5-.1-1.2-.8-2-1.5-2.8l-.3-.3c-.7-.8-1.3-1.5-1.3-2.4 0-.9.6-1.5 1.4-1.5.6 0 1.1.4 1.2 1v.2l-.2.1c-.4.1-.6.4-.5.8.1.6.6.9 1 .9.6-.1.9-.4.9-1 .1-.7-.1-1.3-.5-1.8m-39.6-1.7c.4-1.7-.4-3.4-2-4.1-.7-.3-1.5-.5-2.2-.5-1.3 0-3.3.5-4.9 2.8l-.1.1 1.2.8.1-.1c1.3-1.8 2.8-2.2 3.8-2.2.7 0 1.3.2 1.6.3 1 .4 1.5 1.4 1.2 2.4-.2 1-1.6 1.7-3.9 1.9h-.6l.6-1.7-1.3-.5-3.6 9.7h1.6l2.2-6h1.6c.8.1 1.9.3 2.5 1.1.6.7.5 1.9-.2 3.5-1.2 2.9-3.8 3.2-5.5 3.2h-4.1v1.4h4.9c2.8 0 5-1.5 6.1-4.1.9-2.1.9-3.7 0-4.9-.2-.3-.5-.5-.8-.7l-.3-.2.3-.1c.9-.5 1.6-1.2 1.8-2.1"/><path fill="#8B7955" d="M36.4 18.4h-.7v-2.8h-1.2v-.7h3.2v.7h-1.3zm3.2-1h-.4v1.1h-.7v-3.5h1.4c.9 0 1.4.4 1.4 1.2 0 .5-.2.8-.7 1.1l.9 1.3h-.9l-.7-1.1h-.3zm.3-.7c.4 0 .6-.2.6-.6 0-.4-.3-.6-.7-.6h-.6v1.1h.7zm3 1.7h-.8l1.6-3.5h.7l1.6 3.5h-.8l-.3-.6h-1.6l-.4.6zm.6-1.3h1.1l-.6-1.2-.5 1.2zm5.8-1.7c.4.3.5.8.5 1.3s-.2 1-.5 1.3c-.3.3-.8.5-1.3.5h-1.4v-3.5h1.3c.6-.1 1 0 1.4.4m-.6 2.1c.2-.2.3-.5.3-.8 0-.3-.1-.6-.3-.8-.2-.2-.5-.3-.8-.3h-.5v2.2h.6c.3 0 .5-.1.7-.3"/><path fill="#8B7955" d="M53 16.3v.7h-1.7v.8h1.9v.6h-2.6v-3.5h2.6v.7h-1.9v.7zm27.4 2.2h-.6l-.9-1.9-.1 1.9h-.7l.2-3.5h.6l1.2 2.6 1.2-2.6h.7l.2 3.5h-.7l-.2-1.9zm3.7 0h-.8l1.6-3.5h.7l1.6 3.5h-.8l-.4-.7h-1.6l-.3.7zm.6-1.3h1.1l-.5-1.3-.6 1.3zm4.8.2h-.4v1.1h-.7v-3.5h1.4c.9 0 1.4.4 1.4 1.2 0 .5-.2.8-.7 1.1l.9 1.3h-.9l-.7-1.1h-.3zm.3-.6c.4 0 .6-.2.6-.6 0-.4-.3-.6-.7-.6h-.6v1.1h.7zm3.7 1.7h-.7v-3.5h.7v1.5h.3l1.2-1.5h.9l-1.3 1.6 1.4 1.9h-.9l-1-1.3h-.6z"/><path fill-rule="evenodd" clip-rule="evenodd" fill="#8B7955" d="M68.3 69.4c-.5-.1-1-.1-1.4-.3-.7-.2-1.2-.6-1.4-1.3 0-.1-.1-.1-.2-.1h-.2c-.1 0-.2.1-.2.1-.2.5-.5.9-1.1 1.2-.4.2-.9.3-1.6.4-.3 0-.3.3 0 .4.5.1 1 .1 1.4.3.7.2 1.2.6 1.4 1.3 0 .1.1.1.2.1h.2c.1 0 .2-.1.2-.1.2-.5.5-.9 1.1-1.2.4-.2.9-.3 1.6-.4.2 0 .2-.3 0-.4"/><path fill-rule="evenodd" clip-rule="evenodd" fill="#8B7955" d="M32.5 55.6l.2-.1c.1-.5.5-.8 1-1.1.4-.2.9-.3 1.5-.4.2 0 .2-.3 0-.3-.5 0-.9-.1-1.3-.2-.6-.2-1.1-.6-1.3-1.2 0-.1-.1-.1-.2-.1h-.3s-.1.1-.2.1c-.2.4-.4.7-.8.9-.3.2-.8.3-1.4.4-.5 0-.9-.1-1.3-.3-.3-.1-.6-.5-.9-1 0 0-.1-.1-.2-.1h-.3l-.2.1c-.1.5-.5.9-1 1.1-.4.2-.9.3-1.5.4-.2 0-.2.3 0 .3.5 0 .9.1 1.3.2.6.2 1.1.6 1.3 1.2 0 .1.1.1.2.1h.3s.1-.1.2-.1c.2-.4.4-.7.7-.9.3-.2.8-.3 1.4-.4.5 0 .9.1 1.3.3.3.1.6.4.9 1 0 0 .1.1.2.1h.4zm70.6 0l.2-.1c.1-.5.5-.8 1-1.1.4-.2.9-.3 1.5-.4.2 0 .2-.3 0-.3-.5 0-.9-.1-1.3-.2-.6-.2-1.1-.6-1.3-1.2 0-.1-.1-.1-.2-.1h-.3s-.1.1-.2.1c-.2.4-.4.7-.8.9-.3.2-.8.3-1.4.4-.5 0-.9-.1-1.3-.3-.3-.1-.6-.5-.9-1 0 0-.1-.1-.2-.1h-.3l-.2.1c-.1.5-.5.9-1 1.1-.4.2-.9.3-1.5.4-.2 0-.2.3 0 .3.5 0 .9.1 1.3.2.6.2 1.1.6 1.3 1.2 0 .1.1.1.2.1h.3s.1-.1.2-.1c.2-.4.4-.7.7-.9.3-.2.8-.3 1.4-.4.5 0 .9.1 1.3.3.3.1.6.4.9 1 0 0 .1.1.2.1h.4z"/></svg>